<?xml version="1.0" standalone="no"?>
<!DOCTYPE svg PUBLIC "-//W3C//DTD SVG 20010904//EN"
 "http://www.w3.org/TR/2001/REC-SVG-20010904/DTD/svg10.dtd">
<svg version="1.0" xmlns="http://www.w3.org/2000/svg"
 width="1400.000000pt" height="900.000000pt" viewBox="0 0 1400.000000 900.000000"
 preserveAspectRatio="xMidYMid meet">

<g transform="translate(0.000000,900.000000) scale(0.100000,-0.100000)"
fill="#000000" stroke="none">
<path d="M3561 7726 c-54 -30 -50 172 -51 -3133 0 -2361 3 -3078 12 -3098 27
-59 -237 -55 3498 -55 l3432 0 29 29 29 29 0 3082 c0 3354 4 3121 -55 3148
-40 19 -6860 17 -6894 -2z m6910 -25 l29 -29 0 -3082 0 -3082 -29 -29 -29 -29
-3432 0 -3432 0 -29 29 -29 29 0 3082 0 3082 29 29 29 29 3432 0 3432 0 29
-29z"/>
<path d="M3800 6960 l0 -490 3210 0 3210 0 0 490 0 490 -3210 0 -3210 0 0
-490z m6408 3 l-3 -478 -3197 -3 -3198 -2 0 473 c0 261 3 477 7 480 3 4 1443
7 3200 7 l3193 0 -2 -477z"/>
<path d="M9360 7172 c-53 -28 -92 -111 -92 -200 -1 -116 32 -177 104 -188 76
-13 138 46 138 130 0 36 -6 52 -29 78 -26 29 -36 33 -79 33 -35 0 -56 -6 -71
-19 -21 -19 -21 -19 -21 0 0 43 22 94 52 119 26 22 39 26 80 23 39 -2 48 0 48
13 0 33 -75 40 -130 11z m86 -203 c29 -32 26 -105 -5 -130 -44 -36 -102 -21
-120 32 -16 48 -14 67 14 94 31 32 84 34 111 4z"/>
<path d="M9862 7174 c-98 -50 -81 -220 24 -240 39 -7 89 10 104 35 8 14 9 13
10 -4 0 -40 -21 -93 -48 -120 -24 -24 -32 -27 -79 -23 -46 4 -53 2 -53 -13 0
-35 95 -38 146 -4 84 55 100 291 24 360 -27 24 -89 29 -128 9z m102 -43 c40
-44 38 -129 -4 -151 -83 -44 -160 67 -99 144 25 32 77 36 103 7z"/>
<path d="M8395 7115 c-21 -35 -62 -94 -91 -131 -77 -97 -75 -104 36 -104 l90
0 0 -45 c0 -41 2 -45 25 -45 23 0 25 4 25 45 0 41 2 45 25 45 18 0 25 5 25 20
0 15 -7 20 -25 20 l-25 0 0 130 0 130 -24 0 c-18 0 -32 -14 -61 -65z m35 -105
l0 -90 -65 0 -64 0 56 78 c30 42 58 83 60 90 10 25 13 9 13 -78z"/>
<path d="M8610 7123 c0 -32 -3 -75 -6 -95 l-7 -38 51 0 c65 0 97 -15 112 -51
15 -35 7 -72 -23 -100 -19 -18 -30 -20 -85 -15 -56 5 -63 3 -60 -12 4 -22 64
-37 113 -28 24 5 51 20 72 41 28 28 33 40 33 82 0 29 -7 58 -16 72 -20 28 -72
51 -116 51 l-33 0 3 55 4 55 74 0 c67 0 74 2 74 20 0 19 -7 20 -95 20 l-95 0
0 -57z"/>
<path d="M9638 7139 c4 -41 4 -42 -24 -35 -46 12 -48 12 -52 -6 -2 -13 3 -18
16 -18 47 0 53 -10 26 -45 -21 -28 -22 -34 -9 -39 11 -4 22 4 33 24 21 37 27
37 49 0 18 -32 28 -37 38 -20 3 6 -3 22 -14 36 -24 30 -20 44 13 44 28 0 36 8
29 25 -3 10 -11 11 -30 4 -39 -14 -43 -11 -43 31 0 32 -4 40 -18 40 -15 0 -17
-7 -14 -41z"/>
<path d="M9020 7025 l0 -55 -56 0 c-47 0 -55 -3 -52 -17 2 -14 15 -19 55 -21
l52 -3 3 -52 c2 -38 7 -52 18 -52 11 0 16 14 18 52 l3 52 52 3 c40 2 53 7 55
21 3 14 -5 17 -52 17 l-56 0 0 55 c0 48 -2 55 -20 55 -18 0 -20 -7 -20 -55z"/>
<path d="M3686 6024 l-26 -27 0 -227 0 -227 26 -27 27 -26 3297 0 3297 0 27
26 26 27 0 227 0 227 -26 27 -27 26 -3297 0 -3297 0 -27 -26z"/>
<path d="M3716 5184 l-26 -27 0 -187 0 -187 26 -27 27 -26 647 0 647 0 27 26
26 27 0 187 0 187 -26 27 -27 26 -647 0 -647 0 -27 -26z m1329 -19 c25 -24 25
-27 25 -195 0 -168 0 -171 -25 -195 l-24 -25 -631 0 -631 0 -24 25 c-25 24
-25 27 -25 195 0 168 0 171 25 195 l24 25 631 0 631 0 24 -25z"/>
<path d="M4378 5044 c-32 -17 -38 -38 -8 -29 19 6 20 2 20 -74 0 -65 3 -81 15
-81 12 0 15 18 15 100 0 55 -3 100 -7 100 -5 -1 -20 -8 -35 -16z"/>
<path d="M5466 5184 l-26 -27 0 -187 0 -187 26 -27 27 -26 647 0 647 0 27 26
26 27 0 187 0 187 -26 27 -27 26 -647 0 -647 0 -27 -26z m1329 -19 c25 -24 25
-27 25 -195 0 -168 0 -171 -25 -195 l-24 -25 -631 0 -631 0 -24 25 c-25 24
-25 27 -25 195 0 168 0 171 25 195 l24 25 631 0 631 0 24 -25z"/>
<path d="M6103 5053 c-24 -9 -13 -23 12 -17 29 7 55 -10 55 -36 0 -9 -20 -35
-45 -58 -25 -23 -45 -50 -45 -61 0 -19 6 -21 60 -21 74 0 80 18 8 22 l-53 3
48 44 c38 36 47 51 47 77 0 44 -41 66 -87 47z"/>
<path d="M7206 5184 l-26 -27 0 -187 0 -187 26 -27 27 -26 647 0 647 0 27 26
26 27 0 187 0 187 -26 27 -27 26 -647 0 -647 0 -27 -26z m1329 -19 c25 -24 25
-27 25 -195 0 -168 0 -171 -25 -195 l-24 -25 -631 0 -631 0 -24 25 c-25 24
-25 27 -25 195 0 168 0 171 25 195 l24 25 631 0 631 0 24 -25z"/>
<path d="M7837 5053 c-16 -15 -5 -21 27 -16 29 4 35 2 41 -16 9 -28 -10 -51
-41 -51 -36 0 -29 -18 9 -22 28 -3 32 -6 32 -33 0 -28 -2 -30 -40 -31 -48 0
-53 -18 -7 -22 67 -7 110 57 62 91 -18 12 -18 15 -5 20 18 8 20 58 3 75 -13
13 -70 17 -81 5z"/>
<path d="M8956 5184 l-26 -27 0 -187 0 -187 26 -27 27 -26 647 0 647 0 27 26
26 27 0 187 0 187 -26 27 -27 26 -647 0 -647 0 -27 -26z m1334 -14 c19 -19 20
-33 20 -200 0 -167 -1 -181 -20 -200 -20 -20 -33 -20 -660 -20 -627 0 -640 0
-660 20 -19 19 -20 33 -20 200 0 167 1 181 20 200 20 20 33 20 660 20 627 0
640 0 660 -20z"/>
<path d="M9620 4980 c0 -25 -4 -30 -25 -30 -14 0 -25 -4 -25 -10 0 -5 11 -10
25 -10 21 0 25 -5 25 -30 0 -16 5 -30 10 -30 6 0 10 14 10 30 0 25 4 30 25 30
14 0 25 5 25 10 0 6 -11 10 -25 10 -21 0 -25 5 -25 30 0 17 -4 30 -10 30 -5 0
-10 -13 -10 -30z"/>
<path d="M3716 4424 l-26 -27 0 -187 0 -187 26 -27 27 -26 647 0 647 0 27 26
26 27 0 187 0 187 -26 27 -27 26 -647 0 -647 0 -27 -26z m1329 -19 c25 -24 25
-27 25 -195 0 -168 0 -171 -25 -195 l-24 -25 -631 0 -631 0 -24 25 c-25 24
-25 27 -25 195 0 168 0 171 25 195 l24 25 631 0 631 0 24 -25z"/>
<path d="M4399 4278 c-6 -13 -27 -42 -45 -65 -19 -23 -34 -46 -34 -52 0 -6 19
-11 45 -11 41 0 45 -2 45 -25 0 -16 6 -25 15 -25 9 0 15 9 15 24 0 13 6 27 13
30 10 5 10 7 0 12 -9 4 -13 28 -13 70 0 50 -3 64 -15 64 -8 0 -20 -10 -26 -22z
m11 -68 c0 -38 -2 -40 -30 -40 l-30 0 28 40 c15 21 28 39 30 40 1 0 2 -18 2
-40z"/>
<path d="M5466 4424 l-26 -27 0 -187 0 -187 26 -27 27 -26 647 0 647 0 27 26
26 27 0 187 0 187 -26 27 -27 26 -647 0 -647 0 -27 -26z m1329 -19 c25 -24 25
-27 25 -195 0 -168 0 -171 -25 -195 l-24 -25 -631 0 -631 0 -24 25 c-25 24
-25 27 -25 195 0 168 0 171 25 195 l24 25 631 0 631 0 24 -25z"/>
<path d="M6097 4293 c-4 -3 -7 -26 -7 -49 0 -41 2 -43 31 -46 63 -6 65 -72 3
-74 -41 -1 -41 -18 0 -22 39 -4 76 24 76 58 0 27 -35 60 -63 60 -20 0 -23 4
-19 30 4 27 8 30 38 30 19 0 34 5 34 10 0 11 -83 14 -93 3z"/>
<path d="M7206 4424 l-26 -27 0 -187 0 -187 26 -27 27 -26 647 0 647 0 27 26
26 27 0 187 0 187 -26 27 -27 26 -647 0 -647 0 -27 -26z m1329 -19 c25 -24 25
-27 25 -195 0 -168 0 -171 -25 -195 l-24 -25 -631 0 -631 0 -24 25 c-25 24
-25 27 -25 195 0 168 0 171 25 195 l24 25 631 0 631 0 24 -25z"/>
<path d="M7863 4285 c-45 -31 -54 -125 -16 -167 23 -25 68 -23 87 4 35 50 3
106 -54 95 -35 -7 -39 6 -14 42 13 17 24 22 46 19 17 -3 27 0 25 6 -6 17 -50
18 -74 1z m52 -125 c0 -38 -24 -52 -50 -30 -31 25 -9 73 30 68 16 -2 20 -11
20 -38z"/>
<path d="M8956 4424 l-26 -27 0 -187 0 -187 26 -27 27 -26 647 0 647 0 27 26
26 27 0 187 0 187 -26 27 -27 26 -647 0 -647 0 -27 -26z m1334 -14 c19 -19 20
-33 20 -200 0 -167 -1 -181 -20 -200 -20 -20 -33 -20 -660 -20 -627 0 -640 0
-660 20 -19 19 -20 33 -20 200 0 167 1 181 20 200 20 20 33 20 660 20 627 0
640 0 660 -20z"/>
<path d="M9595 4180 c3 -5 22 -10 41 -10 19 0 34 5 34 10 0 6 -18 10 -41 10
-24 0 -38 -4 -34 -10z"/>
<path d="M3716 3664 l-26 -27 0 -187 0 -187 26 -27 27 -26 647 0 647 0 27 26
26 27 0 187 0 187 -26 27 -27 26 -647 0 -647 0 -27 -26z m1329 -19 c25 -24 25
-27 25 -195 0 -168 0 -171 -25 -195 l-24 -25 -631 0 -631 0 -24 25 c-25 24
-25 27 -25 195 0 168 0 171 25 195 l24 25 631 0 631 0 24 -25z"/>
<path d="M4330 3530 c0 -5 22 -10 49 -10 l50 0 -29 -62 c-37 -82 -45 -118 -26
-118 8 0 16 14 20 33 3 17 19 61 36 95 16 35 30 66 30 68 0 2 -29 4 -65 4 -37
0 -65 -4 -65 -10z"/>
<path d="M5466 3664 l-26 -27 0 -187 0 -187 26 -27 27 -26 647 0 647 0 27 26
26 27 0 187 0 187 -26 27 -27 26 -647 0 -647 0 -27 -26z m1329 -19 c25 -24 25
-27 25 -195 0 -168 0 -171 -25 -195 l-24 -25 -631 0 -631 0 -24 25 c-25 24
-25 27 -25 195 0 168 0 171 25 195 l24 25 631 0 631 0 24 -25z"/>
<path d="M6097 3519 c-16 -21 -12 -59 6 -59 5 0 3 -8 -6 -18 -22 -24 -21 -65
1 -85 53 -48 135 11 97 69 -12 19 -13 28 -3 49 9 21 8 28 -7 45 -24 26 -70 26
-88 -1z m68 -29 c0 -18 -6 -26 -23 -28 -13 -2 -25 3 -28 12 -10 26 4 48 28 44
17 -2 23 -10 23 -28z m9 -72 c14 -23 -3 -52 -32 -56 -29 -4 -51 40 -32 63 16
20 49 16 64 -7z"/>
<path d="M7206 3664 l-26 -27 0 -187 0 -187 26 -27 27 -26 647 0 647 0 27 26
26 27 0 187 0 187 -26 27 -27 26 -647 0 -647 0 -27 -26z m1329 -19 c25 -24 25
-27 25 -195 0 -168 0 -171 -25 -195 l-24 -25 -631 0 -631 0 -24 25 c-25 24
-25 27 -25 195 0 168 0 171 25 195 l24 25 631 0 631 0 24 -25z"/>
<path d="M7840 3520 c-24 -24 -25 -48 -4 -79 13 -18 24 -22 50 -19 26 3 34 0
34 -12 0 -27 -36 -53 -65 -48 -16 4 -24 1 -22 -6 7 -21 58 -19 83 5 40 38 41
146 1 171 -22 14 -57 8 -77 -12z m68 -12 c28 -28 1 -75 -38 -63 -14 4 -20 15
-20 34 0 15 3 31 7 34 10 11 38 8 51 -5z"/>
<path d="M8956 3664 l-26 -27 0 -187 0 -187 26 -27 27 -26 647 0 647 0 27 26
26 27 0 187 0 187 -26 27 -27 26 -647 0 -647 0 -27 -26z m1334 -14 c19 -19 20
-33 20 -200 0 -167 -1 -181 -20 -200 -20 -20 -33 -20 -660 -20 -627 0 -640 0
-660 20 -19 19 -20 33 -20 200 0 167 1 181 20 200 20 20 33 20 660 20 627 0
640 0 660 -20z"/>
<path d="M9620 3519 c0 -14 -5 -19 -15 -16 -8 4 -17 2 -20 -3 -4 -6 4 -10 16
-10 18 0 20 -3 11 -12 -17 -17 -15 -33 3 -18 12 10 18 10 30 0 18 -15 20 1 3
18 -9 9 -8 12 5 12 9 0 17 4 17 9 0 5 -9 7 -19 4 -16 -4 -19 -1 -14 16 3 12 1
21 -6 21 -6 0 -11 -9 -11 -21z"/>
<path d="M3716 2904 l-26 -27 0 -187 0 -187 26 -27 27 -26 647 0 647 0 27 26
26 27 0 187 0 187 -26 27 -27 26 -647 0 -647 0 -27 -26z m1329 -19 c25 -24 25
-27 25 -195 0 -168 0 -171 -25 -195 l-24 -25 -631 0 -631 0 -24 25 c-25 24
-25 27 -25 195 0 168 0 171 25 195 l24 25 631 0 631 0 24 -25z"/>
<path d="M4380 2595 c0 -8 7 -15 15 -15 8 0 15 7 15 15 0 8 -7 15 -15 15 -8 0
-15 -7 -15 -15z"/>
<path d="M5466 2904 l-26 -27 0 -187 0 -187 26 -27 27 -26 647 0 647 0 27 26
26 27 0 187 0 187 -26 27 -27 26 -647 0 -647 0 -27 -26z m1329 -19 c25 -24 25
-27 25 -195 0 -168 0 -171 -25 -195 l-24 -25 -631 0 -631 0 -24 25 c-25 24
-25 27 -25 195 0 168 0 171 25 195 l24 25 631 0 631 0 24 -25z"/>
<path d="M6106 2767 c-41 -30 -38 -153 5 -180 23 -14 66 -1 80 25 17 31 14
114 -5 143 -18 27 -52 33 -80 12z m64 -26 c5 -11 10 -38 10 -61 0 -51 -15 -80
-40 -80 -36 0 -53 75 -30 134 11 31 45 35 60 7z"/>
<path d="M7206 2904 l-26 -27 0 -187 0 -187 26 -27 27 -26 647 0 647 0 27 26
26 27 0 187 0 187 -26 27 -27 26 -647 0 -647 0 -27 -26z m1334 -14 c19 -19 20
-33 20 -200 0 -167 -1 -181 -20 -200 -20 -20 -33 -20 -660 -20 -627 0 -640 0
-660 20 -19 19 -20 33 -20 200 0 167 1 181 20 200 20 20 33 20 660 20 627 0
640 0 660 -20z"/>
<path d="M7820 2690 c0 -6 28 -10 65 -10 37 0 65 4 65 10 0 6 -28 10 -65 10
-37 0 -65 -4 -65 -10z"/>
<path d="M7820 2630 c0 -6 28 -10 65 -10 37 0 65 4 65 10 0 6 -28 10 -65 10
-37 0 -65 -4 -65 -10z"/>
<path d="M8956 2904 l-26 -27 0 -187 0 -187 26 -27 27 -26 647 0 647 0 27 26
26 27 0 187 0 187 -26 27 -27 26 -647 0 -647 0 -27 -26z m1334 -14 c19 -19 20
-33 20 -200 0 -167 -1 -181 -20 -200 -20 -20 -33 -20 -660 -20 -627 0 -640 0
-660 20 -19 19 -20 33 -20 200 0 167 1 181 20 200 20 20 33 20 660 20 627 0
640 0 660 -20z"/>
<path d="M9618 2664 c-26 -63 -42 -114 -37 -112 6 2 28 46 50 98 49 119 52
130 41 130 -4 0 -29 -52 -54 -116z"/>
</g>
</svg>
